<svg xmlns="http://www.w3.org/2000/svg" viewBox="0 0 586 586"><defs><style>.cls-1{fill:none;stroke:#231f20;stroke-miterlimit:10;stroke-width:10px;}</style></defs><title>circle-border-4</title><g id="Layer_2" data-name="Layer 2"><g id="Circles"><path class="cls-1" d="M401,581a179.93,179.93,0,0,1-107.95-36,178.57,178.57,0,0,1-108,36C85.75,581,5,500.25,5,401A289.69,289.69,0,0,1,26.13,293,289.69,289.69,0,0,1,5,185C5,85.75,85.75,5,185,5A179.93,179.93,0,0,1,293,41.05,178.5,178.5,0,0,1,401,5c99.25,0,180,80.75,180,180a289.69,289.69,0,0,1-21.13,108A289.65,289.65,0,0,1,581,401C581,500.25,500.25,581,401,581Z"/><path class="cls-1" d="M401,545a143.68,143.68,0,0,1-108-48.83q-3,3.39-6.24,6.63A143,143,0,0,1,185,545c-79.4,0-144-64.6-144-144A252.41,252.41,0,0,1,65.42,293,252.37,252.37,0,0,1,41,185c0-79.4,64.6-144,144-144A143.68,143.68,0,0,1,293,89.83q3-3.39,6.24-6.63A143,143,0,0,1,401,41c79.4,0,144,64.6,144,144a252.41,252.41,0,0,1-24.42,108A252.37,252.37,0,0,1,545,401C545,480.4,480.4,545,401,545Z"/><path class="cls-1" d="M401,509A108.12,108.12,0,0,1,293,401l0,0A108,108,0,0,1,77,401a217.27,217.27,0,0,1,29-108A217.27,217.27,0,0,1,77,185a108,108,0,0,1,216,0l0,0A108,108,0,0,1,509,185a217.27,217.27,0,0,1-29,108,217.27,217.27,0,0,1,29,108A108.12,108.12,0,0,1,401,509Z"/><path class="cls-1" d="M401,473a72.08,72.08,0,0,1-72-72,36,36,0,0,0-72,0,72,72,0,0,1-144,0,180,180,0,0,1,36.08-108A180,180,0,0,1,113,185a72,72,0,0,1,144,0,36,36,0,0,0,72,0,72,72,0,0,1,144,0,180,180,0,0,1-36.09,108A180,180,0,0,1,473,401,72.08,72.08,0,0,1,401,473Z"/><path class="cls-1" d="M437,185c0,79.4-64.6,144-144,144S149,264.4,149,185a36,36,0,0,1,72,0,72,72,0,0,0,144,0,36,36,0,0,1,72,0ZM185,437a36,36,0,0,0,36-36,72,72,0,0,1,144,0,36,36,0,0,0,72,0c0-79.4-64.6-144-144-144S149,321.6,149,401A36,36,0,0,0,185,437Z"/></g></g></svg>