<svg xmlns="http://www.w3.org/2000/svg" viewBox="0 0 559 586"><defs><style>.cls-1{fill:none;stroke:#231f20;stroke-miterlimit:10;stroke-width:10px;}</style></defs>
<title>circle-border-1</title>
<g id="Layer_2" data-name="Layer 2"><g id="Circles">
	<path class="cls-1" d="M279.5,581A198.27,198.27,0,0,1,93.36,450.5a184.65,184.65,0,0,1,0-315,198,198,0,0,1,372.28,0,184.65,184.65,0,0,1,0,315A198.27,198.27,0,0,1,279.5,581Z"/>
	<path class="cls-1" d="M279.5,545A162.26,162.26,0,0,1,123.28,425.93a148.57,148.57,0,0,1,0-265.86,162,162,0,0,1,312.44,0,148.57,148.57,0,0,1,0,265.86A162.26,162.26,0,0,1,279.5,545Z"/>
	<path class="cls-1" d="M279.5,509C215.78,509,163,461.45,154.64,400a112.51,112.51,0,0,1,0-213.94C163,124.55,215.78,77,279.5,77s116.55,47.55,124.86,109a112.51,112.51,0,0,1,0,213.94C396.05,461.45,343.22,509,279.5,509Z"/>
	
	<path class="cls-1" d="M369.5,216.5h-1a91.22,91.22,0,0,0,1-13.51,90,90,0,0,0-180,0,91.22,91.22,0,0,0,1,13.51h-1a76.5,76.5,0,0,0,0,153h1a91.22,91.22,0,0,0-1,13.51,90,90,0,0,0,180,0,91.22,91.22,0,0,0-1-13.51h1a76.5,76.5,0,0,0,0-153Z"/>
	<path class="cls-1" d="M333.5,203a54,54,0,1,1-54-54A54,54,0,0,1,333.5,203Zm-54,126a54,54,0,1,0,54,54A54,54,0,0,0,279.5,329ZM410,293a40.5,40.5,0,1,0-40.5,40.5A40.5,40.5,0,0,0,410,293Zm-180,0a40.5,40.5,0,1,0-40.5,40.5A40.5,40.5,0,0,0,230,293Z"/>
</g></g></svg>