<svg xmlns="http://www.w3.org/2000/svg" viewBox="0 0 295 295"><defs><style>.cls-1{fill:none;stroke:#231f20;stroke-miterlimit:10;stroke-width:10px;}</style></defs><title>circle-10</title><g id="Layer_2" data-name="Layer 2"><g id="Circles"><path class="cls-1" d="M192.5,147.5a45,45,0,1,1-45-45A45,45,0,0,1,192.5,147.5Zm-72,76.37A81.19,81.19,0,0,1,71.13,174.5H6A144.14,144.14,0,0,0,120.5,289ZM223.87,174.5a81.19,81.19,0,0,1-49.37,49.37V289A144.14,144.14,0,0,0,289,174.5ZM120.5,6A144.14,144.14,0,0,0,6,120.5H71.13A81.21,81.21,0,0,1,120.5,71.13Zm54,0V71.13a81.21,81.21,0,0,1,49.37,49.37H289A144.14,144.14,0,0,0,174.5,6Z"/></g></g></svg>