<svg xmlns="http://www.w3.org/2000/svg" viewBox="0 0 298 298"><defs><style>.cls-1{fill:none;stroke:#231f20;stroke-miterlimit:10;stroke-width:10px;}</style></defs><title>circle-striped-2</title><g id="Layer_2" data-name="Layer 2"><g id="Circles"><path class="cls-1" d="M172.52,226.52l47.67,47.67m-13.91-67.91,44.54,44.54M71.48,125.48,23.81,77.81m202.71,94.71,47.67,47.67M125.48,71.48,77.81,23.81M91.72,91.72,47.18,47.18M116.65,8.65l67.23,67.23m38.24,38.24,67.23,67.23M75.88,183.88,8.65,116.65M114.12,222.12l67.23,67.23M168.29,6.29l80.38,80.38,43,43m-162,162L6.29,168.29M23.81,77.81A143,143,0,0,0,8.65,116.65M91.72,91.72a81,81,0,0,0-20.24,33.76m101,101a81,81,0,0,0,33.76-20.24m-134.8-80.8a81.17,81.17,0,0,0,4.4,58.4M47.18,47.18A144.19,144.19,0,0,0,23.81,77.81m54-54A144.19,144.19,0,0,0,47.18,47.18m159.1,159.1a81,81,0,0,0,20.24-33.76M75.88,183.88a81.36,81.36,0,0,0,38.24,38.24M6.29,168.29A144.06,144.06,0,0,0,129.71,291.71m92.41-177.59a81.36,81.36,0,0,0-38.24-38.24m107.83,53.83A144.06,144.06,0,0,0,168.29,6.29M125.48,71.48A81,81,0,0,0,91.72,91.72m197.63,89.63a145.07,145.07,0,0,0,2.36-51.64M8.65,116.65a145.07,145.07,0,0,0-2.36,51.64M129.71,291.71a145.07,145.07,0,0,0,51.64-2.36m-67.23-67.23a81.17,81.17,0,0,0,58.4,4.4m54-54a81.17,81.17,0,0,0-4.4-58.4M168.29,6.29a145.07,145.07,0,0,0-51.64,2.36M274.19,220.19a143,143,0,0,0,15.16-38.84M116.65,8.65A143,143,0,0,0,77.81,23.81M183.88,75.88a81.17,81.17,0,0,0-58.4-4.4m55.87,217.87a143,143,0,0,0,38.84-15.16m30.63-23.37a144.19,144.19,0,0,0,23.37-30.63m-54,54a144.19,144.19,0,0,0,30.63-23.37"/></g></g></svg>