<svg xmlns="http://www.w3.org/2000/svg" viewBox="0 0 295 298"><defs><style>.cls-1{fill:none;stroke:#231f20;stroke-miterlimit:10;stroke-width:10px;}</style></defs><title>circle-striped-1</title><g id="Layer_2" data-name="Layer 2"><g id="Circles"><path class="cls-1" d="M66.5,122,22.31,77.81M282.5,122,247.17,86.67,166.78,6.28M228.5,122l-8.33-8.33-105-105M76.31,23.81,174.5,122m-54,0L45.68,47.18M174.5,122h54m-216,0h54M115.15,8.65A143,143,0,0,0,76.31,23.81M66.5,122h54M7.16,116.66c-.4,1.77-.78,3.55-1.12,5.34H12.5m270,0H289A144.09,144.09,0,0,0,166.78,6.28M76.31,23.81A145,145,0,0,0,45.68,47.18M282.5,122h-54M45.68,47.18A145,145,0,0,0,22.31,77.81M120.5,122h54M22.31,77.81A143.33,143.33,0,0,0,7.16,116.66M166.78,6.28A146,146,0,0,0,147.5,5a144.31,144.31,0,0,0-32.35,3.65M249.31,250.82a144.74,144.74,0,0,0,23.38-30.63m15.15-38.85c.4-1.77.78-3.55,1.12-5.34H282.5m-9.81,44.19a143.33,143.33,0,0,0,15.15-38.85M120.5,176h54m-108,0h-54m206.19,98.19a144.71,144.71,0,0,0,30.62-23.37M228.5,176h-54m54,0h54M128.22,291.72A145.87,145.87,0,0,0,147.5,293a144.31,144.31,0,0,0,32.35-3.65M12.5,176H6A144.09,144.09,0,0,0,128.22,291.72m51.63-2.37a143,143,0,0,0,38.84-15.16M66.5,176h54m-108,0L128.22,291.72M174.5,176l74.81,74.82M66.5,176,179.85,289.35M120.5,176l98.19,98.19M228.5,176l44.19,44.19"/></g></g></svg>