<svg xmlns="http://www.w3.org/2000/svg" viewBox="0 0 595 586"><defs><style>.cls-1{fill:none;stroke:#231f20;stroke-miterlimit:10;stroke-width:10px;}</style></defs><title>circle-border-5</title><g id="Layer_2" data-name="Layer 2"><g id="Circles"><path class="cls-1" d="M212,581C97.86,581,5,488.14,5,374a207.44,207.44,0,0,1,16.61-81A207.44,207.44,0,0,1,5,212C5,97.86,97.86,5,212,5H383C497.14,5,590,97.86,590,212a207.44,207.44,0,0,1-16.61,81A207.44,207.44,0,0,1,590,374c0,114.14-92.86,207-207,207Z"/><path class="cls-1" d="M212,545c-94.29,0-171-76.71-171-171a172,172,0,0,1,20.49-81A172,172,0,0,1,41,212c0-94.29,76.71-171,171-171H383c94.29,0,171,76.71,171,171a172,172,0,0,1-20.49,81A172,172,0,0,1,554,374c0,94.29-76.71,171-171,171Z"/><path class="cls-1" d="M212,509c-74.44,0-135-60.56-135-135a135.11,135.11,0,0,1,27.07-81A135.11,135.11,0,0,1,77,212c0-74.44,60.56-135,135-135H383c74.44,0,135,60.56,135,135a135.11,135.11,0,0,1-27.07,81A135.11,135.11,0,0,1,518,374c0,74.44-60.56,135-135,135Z"/><path class="cls-1" d="M212,473a99,99,0,0,1-56.86-180A99,99,0,0,1,212,113H383a99,99,0,0,1,56.86,180A99,99,0,0,1,383,473Z"/><path class="cls-1" d="M446,212a63,63,0,1,1-63-63A63,63,0,0,1,446,212Zm-126,0a63,63,0,0,1,63-63H212a63,63,0,0,0,0,126H383A63,63,0,0,1,320,212ZM212,311a63,63,0,1,0,63,63A63,63,0,0,0,212,311Zm171,0H212a63,63,0,0,1,0,126H383a63,63,0,0,0,0-126Z"/></g></g></svg>