<svg xmlns="http://www.w3.org/2000/svg" viewBox="0 0 298 298"><defs><style>.cls-1{fill:none;stroke:#231f20;stroke-miterlimit:10;stroke-width:10px;}</style></defs><title>circle-striped-0</title><g id="Layer_2" data-name="Layer 2"><g id="Circles"><path class="cls-1" d="M77.81,23.81A143,143,0,0,1,116.65,8.65m51.64-2.36a145.07,145.07,0,0,0-51.64,2.36M274.19,220.19a143,143,0,0,0,15.16-38.84m0,0a145.07,145.07,0,0,0,2.36-51.64m0,0A144.06,144.06,0,0,0,168.29,6.29M23.81,77.81A143,143,0,0,0,8.65,116.65M47.18,47.18A144.19,144.19,0,0,0,23.81,77.81m54-54A144.19,144.19,0,0,0,47.18,47.18m173,227a144.19,144.19,0,0,0,30.63-23.37m0,0a144.19,144.19,0,0,0,23.37-30.63m-92.84,69.16a143,143,0,0,0,38.84-15.16m-90.48,17.52a145.07,145.07,0,0,0,51.64-2.36M6.29,168.29A144.06,144.06,0,0,0,129.71,291.71M8.65,116.65a145.07,145.07,0,0,0-2.36,51.64m162-162,80.38,80.38,43,43M8.65,116.65l172.7,172.7M116.65,8.65l105,105,67.68,67.68M129.71,291.71,6.29,168.29m267.9,51.9-79.52-79.52L77.81,23.81m-54,54L220.19,274.19m-173-227L167.67,167.67l83.15,83.15"/></g></g></svg>