<svg xmlns="http://www.w3.org/2000/svg" viewBox="0 0 576.99 561.25"><defs><style>.cls-1{fill:none;stroke:#231f20;stroke-miterlimit:10;stroke-width:10px;}</style></defs><title>circle-border-2</title><g id="Layer_2" data-name="Layer 2"><g id="Circles"><path class="cls-1" d="M212.09,556.25a210.34,210.34,0,0,1-21.71-1.14A207.08,207.08,0,0,1,83,187.23a207,207,0,0,1,405.43-28.67A209.52,209.52,0,0,1,494,187.37a207.57,207.57,0,0,1,60.12,77.68c46.42,104.27-.64,226.86-104.91,273.28a207.29,207.29,0,0,1-160.58,3.36A205.32,205.32,0,0,1,212.09,556.25Z"/><path class="cls-1" d="M212.09,520.25a173.91,173.91,0,0,1-18-.94A171.16,171.16,0,0,1,42,331.37a170.86,170.86,0,0,1,75.68-124.84q.18-6,.78-11.9a171,171,0,0,1,341,12c2.94,2,5.83,4,8.64,6.12a171.26,171.26,0,0,1,53.2,66.91c38.35,86.12-.53,187.39-86.66,225.74a171.1,171.1,0,0,1-145.94-3.17A170.53,170.53,0,0,1,212.09,520.25Z"/><path class="cls-1" d="M212.09,484.25a134.89,134.89,0,0,1-14.19-.75c-74-7.78-127.92-74.33-120.14-148.36a134.83,134.83,0,0,1,76.65-108.09A134.92,134.92,0,0,1,288.56,77,134.92,134.92,0,0,1,418.88,177.12a135.7,135.7,0,0,1,3.72,50.06,134.91,134.91,0,0,1,65.73,67.16c30.27,68-.42,147.94-68.41,178.21a134.94,134.94,0,0,1-131.31-12A134.61,134.61,0,0,1,212.09,484.25Z"/><path class="cls-1" d="M212.09,448.25a100.87,100.87,0,0,1-10.42-.55,99,99,0,0,1-4-196.43,99,99,0,1,1,181.73,0,99,99,0,0,1-14.34,197h0a99.13,99.13,0,0,1-76.47-36.11A98.62,98.62,0,0,1,212.09,448.25Z"/><path class="cls-1" d="M205.43,411.9a63,63,0,1,1,69.24-56.07A63,63,0,0,1,205.43,411.9Zm134-120.2a63,63,0,1,0,83.16,31.92A63,63,0,0,0,339.4,291.7ZM251.48,263a63,63,0,1,0-13.93-88A63,63,0,0,0,251.48,263Z"/></g></g></svg>