<svg xmlns="http://www.w3.org/2000/svg" viewBox="0 0 946 586"><defs><style>.cls-1{fill:none;stroke:#231f20;stroke-miterlimit:10;stroke-width:10px;}</style></defs><title>circle-double-1</title><g id="Layer_2" data-name="Layer 2"><g id="Circles"><path class="cls-1" d="M293,581C134.2,581,5,451.8,5,293S134.2,5,293,5H653C811.8,5,941,134.2,941,293S811.8,581,653,581Z"/><path class="cls-1" d="M293,545C154.05,545,41,432,41,293S154.05,41,293,41H653c139,0,252,113.05,252,252S792,545,653,545Z"/><path class="cls-1" d="M293,509C173.9,509,77,412.1,77,293S173.9,77,293,77H653c119.1,0,216,96.9,216,216S772.1,509,653,509Z"/><path class="cls-1" d="M293,473c-99.25,0-180-80.75-180-180s80.75-180,180-180H653c99.25,0,180,80.75,180,180S752.25,473,653,473Z"/><path class="cls-1" d="M293,437a144,144,0,0,1,0-288H653a144,144,0,0,1,0,288Zm360-54a90,90,0,0,0,0-180H293a90,90,0,0,0,0,180Zm0-108a18,18,0,1,0,18,18A18,18,0,0,0,653,275Zm-360,0a18,18,0,1,0,18,18A18,18,0,0,0,293,275Z"/></g></g></svg>