<svg xmlns="http://www.w3.org/2000/svg" viewBox="0 0 297.97 298"><defs><style>.cls-1{fill:none;stroke:#231f20;stroke-miterlimit:10;stroke-width:10px;}</style></defs><title>circle-4</title><g id="Layer_2" data-name="Layer 2"><g id="Circles"><path class="cls-1" d="M149,293C69.6,293,5,228.4,5,149S69.6,5,149,5a36,36,0,0,1,0,72,72,72,0,0,0,0,144,36,36,0,0,1,0,72Z"/><path class="cls-1" d="M273.71,77c39.7,68.76,16.05,157-52.71,196.71S64,289.76,24.29,221a36,36,0,0,1,62.36-36,72,72,0,0,0,124.7-72,36,36,0,0,1,62.36-36Z"/><circle class="cls-1" cx="149" cy="149" r="45"/></g></g></svg>