<svg xmlns="http://www.w3.org/2000/svg" viewBox="0 0 611.47 601.38"><defs><style>.cls-1{fill:none;stroke:#231f20;stroke-miterlimit:10;stroke-width:10px;}</style></defs><title>test</title><g id="Layer_2" data-name="Layer 2"><g id="Circles">
<path class="cls-1" d="M369.26,488.38a90.4,90.4,0,0,1-63.53-26.22,90.37,90.37,0,0,1-63.52,26.22h0a90,90,0,0,1-80.27-130.67A90,90,0,0,1,203,187.61a89.21,89.21,0,0,1,13.86,1.08,90,90,0,0,1,177.73,0A89.92,89.92,0,0,1,494,249.82a90.13,90.13,0,0,1-44.51,107.89,90,90,0,0,1-80.27,130.67Z"/>
<path class="cls-1" d="M369.25,524.38a126.23,126.23,0,0,1-63.52-17.22,126.2,126.2,0,0,1-63.52,17.22h0A126.17,126.17,0,0,1,119.05,371.66a126.08,126.08,0,0,1,71.37-219.43,126,126,0,0,1,230.63,0,126.14,126.14,0,0,1,71.37,219.43A126.09,126.09,0,0,1,369.26,524.38Z"/>
<path class="cls-1" d="M369.25,560.38a162,162,0,0,1-63.52-13,161.72,161.72,0,0,1-63.52,13h0A162,162,0,0,1,82.25,423.72a162.63,162.63,0,0,1-1.42-39.78,162.07,162.07,0,0,1,86-264.28,161.93,161.93,0,0,1,277.76,0,162,162,0,0,1,86,264.28,163.12,163.12,0,0,1-1.41,39.78,162,162,0,0,1-160,136.66Z"/>
<path class="cls-1" d="M369.25,596.38a197.71,197.71,0,0,1-63.52-10.52,197.35,197.35,0,0,1-63.52,10.52h0a198,198,0,0,1-195.51-167,200.36,200.36,0,0,1-2.47-33.57A198.1,198.1,0,0,1,144.3,88.47a197.84,197.84,0,0,1,322.86,0A198,198,0,0,1,567.25,395.78a201.42,201.42,0,0,1-2.47,33.57,198,198,0,0,1-195.52,167Z"/>
<path class="cls-1" d="M186.33,329a54,54,0,1,1,68-34.67A54,54,0,0,1,186.33,329Zm119.4-72a54,54,0,1,0-54-54A54,54,0,0,0,305.73,257ZM274,354.69a54,54,0,1,0,11.95,75.42A54,54,0,0,0,274,354.69ZM459.8,260.94a54,54,0,1,0-34.67,68A54,54,0,0,0,459.8,260.94ZM337.47,354.69a54,54,0,1,0,75.43,11.94A54,54,0,0,0,337.47,354.69ZM341.73,311a36,36,0,1,0-36,36A36,36,0,0,0,341.73,311Z"/></g></g></svg>