<svg xmlns="http://www.w3.org/2000/svg" width="15.34375" height="23.0625" viewBox="0 0 15.34375 23.0625">
  <title>sig-2</title>
  <path d="M0,7.01562A6.70987,6.70987,0,0,1,2.02344,1.9375,7.50078,7.50078,0,0,1,7.4375,0a7.19139,7.19139,0,0,1,5.00391,1.66064,5.6643,5.6643,0,0,1,1.83984,4.42041q0,3.36329-4.2749,8.00684L3.92188,20.70312H15.34375V23.0625H.42188V20.98438l7.88623-8.75733a18.71644,18.71644,0,0,0,2.41748-3.229,5.38861,5.38861,0,0,0,.665-2.57276A4.08761,4.08761,0,0,0,10.3125,3.501a3.76938,3.76938,0,0,0-2.875-1.1416A4.45644,4.45644,0,0,0,4.08594,3.58984,4.712,4.712,0,0,0,2.89062,7.01562Z"/>
</svg>
