<svg xmlns="http://www.w3.org/2000/svg" width="14.35938" height="23.375" viewBox="0 0 14.35938 23.375">
  <title>sig-0</title>
  <path d="M0,13.75V9.89062Q0,4.875,1.73438,2.4375A6.21572,6.21572,0,0,1,7.17188,0a6.27354,6.27354,0,0,1,5.40624,2.35156q1.73439,2.3518,1.78126,7.25782v3.75q0,5.07861-1.73438,7.54687A6.16814,6.16814,0,0,1,7.20312,23.375,6.21284,6.21284,0,0,1,1.8125,20.96094Q.062,18.54687,0,13.75Zm2.89062.05664a10.77523,10.77523,0,0,0,1.07032,5.44971,3.5416,3.5416,0,0,0,3.24218,1.75927,3.49487,3.49487,0,0,0,3.17969-1.65722,10.395,10.395,0,0,0,1.08594-5.22363V9.39648A10.60784,10.60784,0,0,0,10.4375,4.04053,3.5494,3.5494,0,0,0,7.17188,2.35938,3.501,3.501,0,0,0,3.9375,4.03271a10.35323,10.35323,0,0,0-1.04688,5.145Z"/>
</svg>
