<svg xmlns="http://www.w3.org/2000/svg" width="27.26551" height="41.21942" viewBox="0 0 27.26551 41.21942">
  <defs>
    <style>
      .a {
        fill: none;
        stroke: #010101;
        stroke-width: 0.5px;
      }
    </style>
  </defs>
  <title>sig-2-line</title>
  <path class="a" d="M1.08448,11.97905A20.81477,20.81477,0,0,1,2.49073,6.75584,8.68631,8.68631,0,0,1,4.74691,3.74245,16.36736,16.36736,0,0,1,8.193,1.56353,12.22536,12.22536,0,0,1,12.13359.35817a17.99238,17.99238,0,0,1,3.94059,0A17.55035,17.55035,0,0,1,19.953,1.2081,10.71819,10.71819,0,0,1,23.53812,3.387a9.76786,9.76786,0,0,1,2.59616,3.58516,11.05867,11.05867,0,0,1,.84993,4.296,12.37442,12.37442,0,0,1-.63359,4.07967A8.56324,8.56324,0,0,1,23.95536,18.794a19.60008,19.60008,0,0,1-3.80151,2.75069A36.91053,36.91053,0,0,1,15.796,23.58448q-2.318.91174-3.72425,1.54533a21.12643,21.12643,0,0,0-3.16792,1.83894A20.666,20.666,0,0,0,5.30323,30.214a26.46193,26.46193,0,0,0-2.95158,3.86332A13.82136,13.82136,0,0,0,.74451,37.80152,13.1989,13.1989,0,0,0,.25,40.25859c0,.37088,27.01237.71085,27.01237.71085"/>
</svg>
