<svg xmlns="http://www.w3.org/2000/svg" viewBox="0 0 298 298"><defs><style>.cls-1{fill:none;stroke:#231f20;stroke-miterlimit:10;stroke-width:10px;}</style></defs><title>square-striped-0</title><g id="Layer_2" data-name="Layer 2"><g id="Squares"><path class="cls-1" d="M32,5,181.17,154.17,293,266m-27,27L154.17,181.17,5,32M293,212l-84.83-84.83L86,5M293,158l-57.83-57.83L140,5M293,50l-3.83-3.83L248,5m45,99L262.17,73.17,194,5M5,86,212,293M5,248l45,45M5,194l99,99M5,140,158,293M5,86V32M212,293H158M5,194V140m288-36v54m0,0v54m0-162v54M32,5H86M293,212v54M140,5h54M5,248v45H50M5,86v54M140,5H86M32,5H5V32m99,261h54m-54,0H50M5,248V194m288,72v27m-81,0h54m27,0H266M293,50V5H248m0,0H194"/></g></g></svg>