<svg xmlns="http://www.w3.org/2000/svg" viewBox="0 0 298 298"><defs><style>.cls-1{fill:none;stroke:#231f20;stroke-miterlimit:10;stroke-width:10px;}</style></defs><title>square-striped-1</title><g id="Layer_2" data-name="Layer 2"><g id="Squares"><path class="cls-1" d="M203,122,86,5M257,122l-21.83-21.83L140,5m9,117L32,5M95,122,5,32m36,90L5,86M293,50l-3.83-3.83L248,5m45,99L262.17,73.17,194,5M5,86V32M5,86v36H41M194,5h54M41,122H95m0,0h54m0,0h54M194,5H140M293,50V5H248m9,117H203m90-18V50m-36,72h36V104M32,5H5V32M86,5h54M32,5H86M41,176,158,293m45-117,90,90m-27,27L154.17,181.17,149,176m63,117L95,176M5,248l45,45M5,194l99,99M257,176l36,36m-27,81h27m0,0V266M5,248V194m198-18h54M41,176H95m198,36v54M104,293H50M41,176H5v18m288,18V176H257m-108,0H95M5,248v45H50m162,0H158m108,0H212M149,176h54M104,293h54"/></g></g></svg>