<svg xmlns="http://www.w3.org/2000/svg" viewBox="0 0 298 298"><defs><style>.cls-1{fill:none;stroke:#231f20;stroke-miterlimit:10;stroke-width:10px;}</style></defs><title>square-striped-2</title><g id="Layer_2" data-name="Layer 2"><g id="Squares"><path class="cls-1" d="M32,5l72,72M293,50l-3.83-3.83L248,5m45,207-72-72m72,18-57.83-57.83L221,86m72,18L262.17,73.17,194,5m27,189,72,72m-81,27-72-72m-54,0,72,72M5,32l72,72M266,293l-72-72M5,140l72,72M5,248l45,45M5,86l72,72M140,5l72,72M5,194l99,99M86,5l72,72M77,158V104m27-27H77v27m144,36v54m-9,99H158M32,5H86M5,194V140M5,248V194M140,5h54M5,86V32M221,86V77h-9m81-27v54m0,108v54m0-162v54m0,135V266M32,5H5V32M140,5H86M248,5H194m99,45V5H248M221,140V86M5,248v45H50m54,0H50M5,140V86m72,72v54m0,0v9h9m54,0H86M212,77H158m36,144H140M104,77h54m54,216h54m27,0H266m-72-72h27V194M104,293h54M293,158v54"/></g></g></svg>