<svg xmlns="http://www.w3.org/2000/svg" viewBox="0 0 809.23 569.88"><defs><style>.cls-1{fill:none;stroke:#0013ff;stroke-miterlimit:10;stroke-width:10px;}</style></defs><title>triangle-border-4_1</title><g id="Layer_2" data-name="Layer 2"><g id="Triangles"><polygon class="cls-1" points="8.66 564.88 170.29 284.94 8.66 5 800.57 5 638.95 284.94 800.57 564.88 8.66 564.88"/><polygon class="cls-1" points="71.02 528.88 211.86 284.94 71.02 41 738.22 41 597.38 284.94 738.22 528.88 71.02 528.88"/><polygon class="cls-1" points="133.37 492.88 253.43 284.94 133.37 77 675.87 77 555.81 284.94 675.87 492.88 133.37 492.88"/><polygon class="cls-1" points="195.72 456.88 294.99 284.94 195.72 113 613.51 113 514.24 284.94 613.51 456.88 195.72 456.88"/><path class="cls-1" d="M346.41,257l58.21-100.81L462.82,257ZM488.8,312.88H320.43l-62.35,108H551.16Zm-142.39,0,58.21,100.81,58.2-100.81Zm-26-55.88H488.8l62.36-108H258.08Z"/></g></g></svg>