<svg xmlns="http://www.w3.org/2000/svg" viewBox="0 0 310.4 268.81"><defs><style>.cls-1{fill:none;stroke:#231f20;stroke-miterlimit:10;stroke-width:10px;}</style></defs><title>triangle-striped-0</title><g id="Layer_2" data-name="Layer 2"><g id="Triangles"><path class="cls-1" d="M227.2,134.71v129.1m36,0V197.06m-180,66.75V134.71m108,129.1V72.35m-72,0V263.81M155.2,10V263.81m-108-66.75v66.75m36,0h36m-72-66.75,36-62.35m-36,62.35L8.66,263.81H47.2m36-129.1,36-62.36m144,124.71-36-62.35m36,129.1h-36m36,0h38.54L263.2,197.06m-72,66.75h-36m72-129.1-36-62.36m0,0L155.2,10l-36,62.35m72,191.46h36m-108,0h36m-72,0h-36"/></g></g></svg>