<svg xmlns="http://www.w3.org/2000/svg" viewBox="0 0 1007.44 514"><defs><style>.cls-1{fill:none;stroke:#0013ff;stroke-miterlimit:10;stroke-width:10px;}</style></defs><title>triangle-border-3_1</title><g id="Layer_2" data-name="Layer 2"><g id="Triangles"><polygon class="cls-1" points="12.07 509 264.07 257 12.07 5 995.37 5 743.37 257 995.37 509 12.07 509"/><polygon class="cls-1" points="98.98 473 314.98 257 98.98 41 908.46 41 692.46 257 908.46 473 98.98 473"/><polygon class="cls-1" points="185.9 437 365.9 257 185.9 77 821.54 77 641.54 257 821.54 437 185.9 437"/><polygon class="cls-1" points="272.81 401 416.81 257 272.81 113 734.63 113 590.63 257 734.63 401 272.81 401"/><path class="cls-1" d="M503.72,293l-144-144h288Zm144,72-144-144-144,144Z"/></g></g></svg>