<svg xmlns="http://www.w3.org/2000/svg" viewBox="0 0 788.09 884.62"><defs><style>.cls-1{fill:none;stroke:#0013ff;stroke-miterlimit:10;stroke-width:10px;}</style></defs><title>triangle-border-2_1</title><g id="Layer_2" data-name="Layer 2"><g id="Triangles"><polygon class="cls-1" points="280.25 675.83 8.66 675.83 144.45 440.63 30.65 243.52 260.2 243.52 395.02 10 529.84 243.52 759.38 243.52 644.61 442.31 779.43 675.83 509.79 675.83 395.02 874.62 280.25 675.83"/><polygon class="cls-1" points="301.03 639.83 71.01 639.83 186.02 440.63 93.01 279.52 280.98 279.52 395.02 82 509.05 279.52 697.03 279.52 603.04 442.31 717.08 639.83 489.01 639.83 395.02 802.62 301.03 639.83"/><polygon class="cls-1" points="321.81 603.83 133.37 603.83 227.59 440.63 155.36 315.52 301.77 315.52 395.02 154 488.27 315.52 634.68 315.52 561.47 442.31 654.73 603.83 468.22 603.83 395.02 730.62 321.81 603.83"/><polygon class="cls-1" points="342.6 567.83 195.72 567.83 269.16 440.63 217.71 351.52 322.55 351.52 395.02 226 467.49 351.52 572.32 351.52 519.9 442.31 592.37 567.83 447.44 567.83 395.02 658.62 342.6 567.83"/><path class="cls-1" d="M510,387.52,395,586.62,280.07,387.52Zm-53.9,144.31H530l-37-64ZM432,362l-37-64-37,64ZM295.05,467.79l-37,64H332Z"/></g></g></svg>