<svg xmlns="http://www.w3.org/2000/svg" viewBox="0 0 1280 739.01"><defs><style>.cls-1{fill:none;stroke:#0013ff;stroke-miterlimit:10;stroke-width:10px;}</style></defs><title>triangle-double-0_1</title><g id="Layer_2" data-name="Layer 2"><g id="Triangles">
<polygon class="cls-1" points="703 501.48 640 537.85 577 501.48 577 558.63 249.42 369.5 577 180.38 577 237.53 640 201.16 703 237.53 703 180.38 1030.58 369.5 703 558.63 703 501.48"/>
<polygon class="cls-1" points="667 563.83 640 579.42 613 563.83 613 620.99 177.42 369.5 613 118.02 613 175.18 640 159.59 667 175.18 667 118.02 1102.58 369.5 667 620.99 667 563.83"/>
<polygon class="cls-1" points="1186.94 369.5 640 53.73 93.06 369.5 640 685.28 1186.94 369.5"/>
<polygon class="cls-1" points="1270 369.5 640 5.77 10 369.5 640 733.24 1270 369.5"/>
<path class="cls-1" d="M541,496.28,321.42,369.5,541,242.73ZM859.58,369.5,640,242.73,420.42,369.5,640,496.28ZM739,496.28,958.58,369.5,739,242.73ZM640,242.73V496.28"/></g></g></svg>