<svg xmlns="http://www.w3.org/2000/svg" viewBox="0 0 310.4 268.81"><defs><style>.cls-1{fill:none;stroke:#231f20;stroke-miterlimit:10;stroke-width:10px;}</style></defs><title>triangle-striped-2</title><g id="Layer_2" data-name="Layer 2"><g id="Triangles"><path class="cls-1" d="M227.2,134.71v129.1m-108,0V215.66m36,48.15V215.66m36,48.15V215.66m-72-143.31v96.32m144,95.14V197.06m-180,66.75V134.71m-36,62.35v66.75m144-191.46v96.32M155.2,10v96.31m72,28.4,36,62.35m0,66.75h38.54L263.2,197.06m0,66.75h-36m0-129.1-36-62.36m-36,191.46h36m-108,0h36m-72-66.75,36-62.35m-36,62.35L8.66,263.81H47.2m144-191.46L155.2,10l-36,62.35m-36,62.36,36-62.36m108,191.46h-36m-108,0h-36m72,0h36m36-48.15h27.13l-27.13-47m0,47h-36m0,0h-36m36-109.35-36,62.36m72,0-36-62.36m-36,62.36-27.13,47H119.2"/></g></g></svg>