<svg xmlns="http://www.w3.org/2000/svg" viewBox="0 0 310.4 268.81"><defs><style>.cls-1{fill:none;stroke:#231f20;stroke-miterlimit:10;stroke-width:10px;}</style></defs><title>triangle-striped-1</title><g id="Layer_2" data-name="Layer 2"><g id="Triangles"><path class="cls-1" d="M119.2,263.81v-108m36,108v-108m72,0v108m-36-108v108m-72-191.46v38.46m-72,86.25v66.75m36,0v-108m108-83.46v38.46M155.2,10V110.81m108,153V197.06m-108-86.25h36m0,0h22.21L191.2,72.35m0,0L155.2,10,97,110.81h22.2m36,0h-36m108,45h-36m-144,41.25L8.66,263.81H47.2m36-108H71L47.2,197.06m144-41.25h-36m108,108h38.54L263.2,197.06m-180,66.75h36m-36-108h36m144,108h-36m-72,0h36m72-66.75-23.81-41.25H227.2m-72,0h-36m72,108h36m-108,0h36m-72,0h-36"/></g></g></svg>