<svg xmlns="http://www.w3.org/2000/svg" viewBox="0 0 1166.47 559"><defs><style>.cls-1{fill:none;stroke:#0013ff;stroke-miterlimit:10;stroke-width:10px;}</style></defs><title>triangle-double-1</title><g id="Layer_2" data-name="Layer 2"><g id="Triangles">
<polygon class="cls-1" points="8.54 554 316.94 5 849.53 5 1157.93 554 8.54 554"/>
<polygon class="cls-1" points="70.06 518 338.01 41 828.47 41 1096.42 518 70.06 518"/>
<polygon class="cls-1" points="131.57 482 359.08 77 807.4 77 1034.9 482 131.57 482"/>
<polygon class="cls-1" points="589.69 446 973.39 446 786.33 113 380.14 113 193.09 446 576.79 446 589.69 446"/>
<path class="cls-1" d="M255.44,410,402,156.19,548.52,410ZM911,410,764.5,156.19,618,410ZM446.88,149,583.24,385.17,719.59,149Z"/></g></g></svg>