<?xml version="1.0" encoding="utf-8"?>
<!-- Generator: Adobe Illustrator 22.1.0, SVG Export Plug-In . SVG Version: 6.00 Build 0)  -->
<svg version="1.1" id="Layer_1" xmlns="http://www.w3.org/2000/svg" xmlns:xlink="http://www.w3.org/1999/xlink" x="0px" y="0px"
	 viewBox="0 0 262 262" style="enable-background:new 0 0 262 262;" xml:space="preserve">
<style type="text/css">
	.st0{fill:none;stroke:#231F20;stroke-width:10;stroke-miterlimit:10;}
</style>
<title>circle-16</title>
<g id="Layer_2_1_">
	<g id="Circles">
		<path class="st0" d="M172.6,131c0,23-18.6,41.6-41.6,41.6S89.4,154,89.4,131S108,89.4,131,89.4S172.6,108,172.6,131z M61.7,34
			C46.4,34,34,46.4,34,61.7s12.4,27.7,27.7,27.7S89.4,77,89.4,61.7S77,34,61.7,34z M61.7,172.6C46.4,172.6,34,185,34,200.3
			S46.4,228,61.7,228s27.7-12.4,27.7-27.7S77,172.6,61.7,172.6z M200.3,34c-15.3,0-27.7,12.4-27.7,27.7s12.4,27.7,27.7,27.7
			S228,77,228,61.7S215.6,34,200.3,34z M200.3,172.6c-15.3,0-27.7,12.4-27.7,27.7S185,228,200.3,228s27.7-12.4,27.7-27.7
			S215.6,172.6,200.3,172.6z"/>
	</g>
</g>
</svg>
