<?xml version="1.0" encoding="utf-8"?>
<!-- Generator: Adobe Illustrator 22.1.0, SVG Export Plug-In . SVG Version: 6.00 Build 0)  -->
<svg version="1.1" id="Layer_1" xmlns="http://www.w3.org/2000/svg" xmlns:xlink="http://www.w3.org/1999/xlink" x="0px" y="0px"
	 viewBox="0 0 298 298" style="enable-background:new 0 0 298 298;" xml:space="preserve">
<style type="text/css">
	.st0{fill:none;stroke:#231F20;stroke-width:10;stroke-miterlimit:10;}
</style>
<title>circle-12</title>
<g id="Layer_2_1_">
	<g id="Circles">
		<path class="st0" d="M253,71c0,57.3-46.7,104-104,104S45,128.3,45,71c0-14.4,11.6-26,26-26s26,11.6,26,26c0,28.7,23.3,52,52,52
			s52-23.3,52-52c0-14.4,11.6-26,26-26S253,56.6,253,71z M71,253c14.4,0,26-11.6,26-26c0-28.7,23.3-52,52-52s52,23.3,52,52
			c0,14.4,11.6,26,26,26s26-11.6,26-26c0-57.3-46.7-104-104-104S45,169.7,45,227C45,241.4,56.6,253,71,253z"/>
	</g>
</g>
</svg>
