<?xml version="1.0" encoding="utf-8"?>
<!-- Generator: Adobe Illustrator 22.1.0, SVG Export Plug-In . SVG Version: 6.00 Build 0)  -->
<svg version="1.1" id="Layer_1" xmlns="http://www.w3.org/2000/svg" xmlns:xlink="http://www.w3.org/1999/xlink" x="0px" y="0px"
	 viewBox="0 0 307 298" style="enable-background:new 0 0 307 298;" xml:space="preserve">
<style type="text/css">
	.st0{fill:none;stroke:#231F20;stroke-width:10;stroke-miterlimit:10;}
</style>
<title>circle-square-1_1</title>
<g id="Layer_2_1_">
	<g id="Circles">
		<path class="st0" d="M169.5,91.5c0-24.7,20-44.8,44.8-44.8s44.8,20,44.8,44.8s-20,44.8-44.8,44.8S169.5,116.2,169.5,91.5z
			 M169.5,91.5c0-24.7,20-44.8,44.8-44.8H86.4v0.5c-24.5,3.5-41.4,26.2-37.9,50.7c2.8,19.6,18.3,35,37.9,37.9v0.5h127.9
			C189.5,136.2,169.5,116.2,169.5,91.5z M92.8,161.8c-24.7,0-44.8,20-44.8,44.8s20,44.8,44.8,44.8s44.8-20,44.8-44.8
			S117.5,161.8,92.8,161.8L92.8,161.8z M137.5,206.5c0,24.7-20,44.8-44.8,44.8h127.9v-0.5c24.5-3.5,41.4-26.2,37.9-50.7
			c-2.8-19.6-18.3-35-37.9-37.9v-0.5H92.8C117.5,161.8,137.5,181.8,137.5,206.5L137.5,206.5z"/>
	</g>
</g>
</svg>
