<svg xmlns="http://www.w3.org/2000/svg" viewBox="0 0 452.92 430.76"><defs><style>.cls-1{fill:none;stroke:#000;stroke-miterlimit:10;stroke-width:8px;}</style></defs><title>decagon</title><g id="Layer_2" data-name="Layer 2"><g id="Layer_1-2" data-name="Layer 1"><polygon class="cls-1" points="157.78 426.76 46.65 346.02 4.21 215.38 46.65 84.74 157.78 4 295.14 4 406.27 84.74 448.71 215.38 406.27 346.02 295.14 426.76 157.78 426.76"/><polygon class="cls-1" points="168.18 394.76 73.87 326.24 37.85 215.38 73.87 104.52 168.18 36 284.74 36 379.05 104.52 415.07 215.38 379.05 326.24 284.74 394.76 168.18 394.76"/><polygon class="cls-1" points="178.57 362.76 101.09 306.46 71.5 215.38 101.09 124.29 178.57 68 274.35 68 351.83 124.29 381.42 215.38 351.83 306.46 274.35 362.76 178.57 362.76"/><polygon class="cls-1" points="188.97 330.76 128.31 286.69 105.14 215.38 128.31 144.07 188.97 100 263.95 100 324.61 144.07 347.77 215.38 324.61 286.69 263.95 330.76 188.97 330.76"/><polygon class="cls-1" points="199.37 298.76 155.53 266.91 138.79 215.38 155.53 163.85 199.37 132 253.55 132 297.38 163.85 314.13 215.38 297.38 266.91 253.55 298.76 199.37 298.76"/></g></g></svg>