<svg xmlns="http://www.w3.org/2000/svg" viewBox="0 0 473.39 450.22"><defs><style>.cls-1{fill:none;stroke:#000;stroke-miterlimit:10;stroke-width:8px;}</style></defs><title>dodecagon</title><g id="Layer_2" data-name="Layer 2"><g id="Layer_1-2" data-name="Layer 1"><polygon class="cls-1" points="164.85 446.22 48.61 361.76 4.21 225.11 48.61 88.45 164.85 4 308.54 4 424.78 88.45 469.18 225.11 424.78 361.76 308.54 446.22 164.85 446.22"/><polygon class="cls-1" points="175.25 414.22 75.83 341.99 37.85 225.11 75.83 108.23 175.25 36 298.14 36 397.56 108.23 435.54 225.11 397.56 341.99 298.14 414.22 175.25 414.22"/><polygon class="cls-1" points="185.65 382.22 103.05 322.21 71.5 225.11 103.05 128.01 185.65 68 287.74 68 370.34 128.01 401.89 225.11 370.34 322.21 287.74 382.22 185.65 382.22"/><polygon class="cls-1" points="196.04 350.22 130.27 302.43 105.15 225.11 130.27 147.79 196.04 100 277.35 100 343.12 147.79 368.24 225.11 343.12 302.43 277.35 350.22 196.04 350.22"/><polygon class="cls-1" points="266.95 132 206.44 132 157.49 167.56 138.79 225.11 157.49 282.65 206.44 318.22 266.95 318.22 315.9 282.65 334.6 225.11 315.9 167.56 266.95 132"/></g></g></svg>