<svg xmlns="http://www.w3.org/2000/svg" viewBox="0 0 461.49 449.92"><defs><style>.cls-1{fill:none;stroke:#000;stroke-miterlimit:10;stroke-width:8px;}</style></defs><title>heptagon</title><g id="Layer_2" data-name="Layer 2"><g id="Layer_1-2" data-name="Layer 1"><polygon class="cls-1" points="129.98 445.92 4.33 288.36 49.17 91.88 230.75 4.44 412.32 91.88 457.16 288.36 331.51 445.92 129.98 445.92"/><polygon class="cls-1" points="145.39 413.92 38.95 280.45 76.94 114.02 230.75 39.96 384.55 114.02 422.54 280.45 316.1 413.92 145.39 413.92"/><polygon class="cls-1" points="160.8 381.92 73.58 272.55 104.71 136.17 230.75 75.47 356.78 136.17 387.91 272.55 300.69 381.92 160.8 381.92"/><polygon class="cls-1" points="176.21 349.92 108.21 264.65 132.48 158.31 230.75 110.99 329.01 158.31 353.28 264.65 285.28 349.92 176.21 349.92"/><polygon class="cls-1" points="191.62 317.92 142.84 256.74 160.25 180.46 230.75 146.51 301.24 180.46 318.65 256.74 269.87 317.92 191.62 317.92"/></g></g></svg>