<svg xmlns="http://www.w3.org/2000/svg" viewBox="0 0 415.37 479.63"><defs><style>.cls-1{fill:none;stroke:#000;stroke-miterlimit:10;stroke-width:8px;}</style></defs><title>hexagon</title>
<g id="Layer_2" data-name="Layer 2">
	<g id="Layer_1-2" data-name="Layer 1">
		<polygon class="cls-1" points="4 357.42 4 122.22 207.69 4.62 411.37 122.22 411.37 357.42 207.69 475.01 4 357.42"/>
		<polygon class="cls-1" points="36 338.94 36 140.69 207.69 41.57 379.37 140.69 379.37 338.94 207.69 438.06 36 338.94"/>
		<polygon class="cls-1" points="68 320.46 68 159.17 207.69 78.52 347.37 159.17 347.37 320.46 207.69 401.11 68 320.46"/>
		<polygon class="cls-1" points="100 301.99 100 177.64 207.69 115.47 315.37 177.64 315.37 301.99 207.69 364.16 100 301.99"/>
		<polygon class="cls-1" points="132 196.12 207.69 152.42 283.37 196.12 283.37 283.51 207.69 327.21 132 283.51 132 196.12"/>
	</g></g></svg>