<svg xmlns="http://www.w3.org/2000/svg" viewBox="0 0 449.35 442.52"><defs><style>.cls-1{fill:none;stroke:#000;stroke-miterlimit:10;stroke-width:8px;}</style></defs><title>nonagon</title><g id="Layer_2" data-name="Layer 2"><g id="Layer_1-2" data-name="Layer 1"><polygon class="cls-1" points="148.1 438.52 30.79 340.08 4.19 189.26 80.76 56.63 224.67 4.26 368.58 56.63 445.15 189.26 418.56 340.08 301.25 438.52 148.1 438.52"/><polygon class="cls-1" points="159.75 406.52 60.28 323.05 37.73 195.18 102.65 82.72 224.67 38.31 346.69 82.72 411.62 195.18 389.07 323.05 289.6 406.52 159.75 406.52"/><polygon class="cls-1" points="171.39 374.52 89.77 306.03 71.26 201.09 124.54 108.81 224.67 72.36 324.81 108.81 378.08 201.09 359.58 306.03 277.95 374.52 171.39 374.52"/><polygon class="cls-1" points="183.04 342.52 119.26 289 104.8 207 146.43 134.9 224.67 106.42 302.92 134.9 344.55 207 330.09 289 266.31 342.52 183.04 342.52"/><polygon class="cls-1" points="194.69 310.52 148.75 271.98 138.34 212.92 168.32 160.98 224.67 140.47 281.03 160.98 311.01 212.92 300.6 271.98 254.66 310.52 194.69 310.52"/></g></g></svg>