<svg xmlns="http://www.w3.org/2000/svg" viewBox="0 0 424.12 424.12"><defs><style>.cls-1{fill:none;stroke:#000;stroke-miterlimit:10;stroke-width:8px;}</style></defs><title>octagon</title><g id="Layer_2" data-name="Layer 2"><g id="Layer_1-2" data-name="Layer 1"><polygon class="cls-1" points="125.88 420.12 4 298.24 4 125.88 125.88 4 298.24 4 420.12 125.88 420.12 298.24 298.24 420.12 125.88 420.12"/><polygon class="cls-1" points="139.13 388.12 36 284.99 36 139.13 139.13 36 284.99 36 388.12 139.13 388.12 284.99 284.99 388.12 139.13 388.12"/><polygon class="cls-1" points="152.39 356.12 68 271.73 68 152.39 152.39 68 271.73 68 356.12 152.39 356.12 271.73 271.73 356.12 152.39 356.12"/><polygon class="cls-1" points="165.64 324.12 100 258.48 100 165.64 165.64 100 258.48 100 324.12 165.64 324.12 258.48 258.48 324.12 165.64 324.12"/><polygon class="cls-1" points="245.22 292.12 178.9 292.12 132 245.22 132 178.9 178.9 132 245.22 132 292.12 178.9 292.12 245.22 245.22 292.12"/></g></g></svg>