<svg xmlns="http://www.w3.org/2000/svg" viewBox="0 0 474.29 451.07"><defs><style>.cls-1{fill:none;stroke:#000;stroke-miterlimit:10;stroke-width:8px;}</style></defs><title>pentagon</title><g id="Layer_2" data-name="Layer 2"><g id="Layer_1-2" data-name="Layer 1"><polygon class="cls-1" points="93.49 447.07 4.7 173.82 237.14 4.94 469.58 173.82 380.8 447.07 93.49 447.07"/><polygon class="cls-1" points="116.74 415.07 42.32 186.04 237.14 44.5 431.96 186.04 357.55 415.07 116.74 415.07"/><polygon class="cls-1" points="139.99 383.07 79.94 198.27 237.14 84.05 394.35 198.27 334.3 383.07 139.99 383.07"/><polygon class="cls-1" points="163.24 351.07 117.56 210.49 237.14 123.61 356.73 210.49 311.05 351.07 163.24 351.07"/><polygon class="cls-1" points="186.48 319.07 155.18 222.71 237.14 163.16 319.11 222.71 287.8 319.07 186.48 319.07"/></g></g></svg>