<svg xmlns="http://www.w3.org/2000/svg" viewBox="0 0 392.39 392.39"><defs><style>.cls-1{fill:none;stroke:#000;stroke-miterlimit:10;stroke-width:8px;}</style></defs><title>plus-sign</title><g id="Layer_2" data-name="Layer 2"><g id="Layer_1-2" data-name="Layer 1"><polygon class="cls-1" points="48.66 388.39 48.66 343.73 4 343.73 4 48.66 48.66 48.66 48.66 4 343.73 4 343.73 48.66 388.39 48.66 388.39 343.73 343.73 343.73 343.73 388.39 48.66 388.39"/><polygon class="cls-1" points="80.66 356.39 80.66 311.73 36 311.73 36 80.66 80.66 80.66 80.66 36 311.73 36 311.73 80.66 356.39 80.66 356.39 311.73 311.73 311.73 311.73 356.39 80.66 356.39"/><polygon class="cls-1" points="112.66 324.39 112.66 279.73 68 279.73 68 112.66 112.66 112.66 112.66 68 279.73 68 279.73 112.66 324.39 112.66 324.39 279.73 279.73 279.73 279.73 324.39 112.66 324.39"/><polygon class="cls-1" points="144.66 292.39 144.66 247.73 100 247.73 100 144.66 144.66 144.66 144.66 100 247.73 100 247.73 144.66 292.39 144.66 292.39 247.73 247.73 247.73 247.73 292.39 144.66 292.39"/><polygon class="cls-1" points="260.39 176.66 215.73 176.66 215.73 132 176.66 132 176.66 176.66 132 176.66 132 215.73 176.66 215.73 176.66 260.39 215.73 260.39 215.73 215.73 260.39 215.73 260.39 176.66"/></g></g></svg>