<svg xmlns="http://www.w3.org/2000/svg" viewBox="0 0 392.39 392.39"><defs><style>.cls-1{fill:none;stroke:#000;stroke-miterlimit:10;stroke-width:8px;}</style></defs><title>t-shape</title><g id="Layer_2" data-name="Layer 2"><g id="Layer_1-2" data-name="Layer 1"><polygon class="cls-1" points="48.66 388.39 48.66 299.06 4 299.06 4 4 388.39 4 388.39 299.06 343.73 299.06 343.73 388.39 48.66 388.39"/><polygon class="cls-1" points="80.66 356.39 80.66 267.06 36 267.06 36 36 356.39 36 356.39 267.06 311.73 267.06 311.73 356.39 80.66 356.39"/><polygon class="cls-1" points="112.66 324.39 112.66 235.06 68 235.06 68 68 324.39 68 324.39 235.06 279.73 235.06 279.73 324.39 112.66 324.39"/><polygon class="cls-1" points="144.66 292.39 144.66 203.06 100 203.06 100 100 292.39 100 292.39 203.06 247.73 203.06 247.73 292.39 144.66 292.39"/><polygon class="cls-1" points="260.39 132 215.73 132 176.66 132 132 132 132 171.06 176.66 171.06 176.66 260.39 215.73 260.39 215.73 171.06 260.39 171.06 260.39 132"/></g></g></svg>