<svg xmlns="http://www.w3.org/2000/svg" viewBox="0 0 496.85 496.85"><defs><style>.cls-1{fill:none;stroke:#000;stroke-miterlimit:10;stroke-width:8px;}</style></defs><title>x</title><g id="Layer_2" data-name="Layer 2"><g id="Layer_1-2" data-name="Layer 1"><polygon class="cls-1" points="5.66 282.55 39.78 248.43 5.66 214.3 214.3 5.66 248.43 39.78 282.55 5.66 491.19 214.3 457.07 248.43 491.19 282.55 282.55 491.19 248.43 457.07 214.3 491.19 5.66 282.55"/><polygon class="cls-1" points="248.43 411.81 214.3 445.94 50.91 282.55 85.04 248.43 50.91 214.3 214.3 50.91 248.43 85.04 282.55 50.91 445.94 214.3 411.81 248.43 445.94 282.55 282.55 445.94 248.43 411.81"/><polygon class="cls-1" points="96.17 282.55 130.29 248.43 96.17 214.3 214.3 96.17 248.43 130.29 282.55 96.17 400.68 214.3 366.56 248.43 400.68 282.55 282.55 400.68 248.43 366.56 214.3 400.68 96.17 282.55"/><polygon class="cls-1" points="248.43 321.3 214.3 355.43 141.42 282.55 175.55 248.43 141.42 214.3 214.3 141.42 248.43 175.55 282.55 141.42 355.43 214.3 321.3 248.43 355.43 282.55 282.55 355.43 248.43 321.3"/><polygon class="cls-1" points="310.17 282.55 276.05 248.43 310.17 214.3 282.55 186.68 248.43 220.8 214.3 186.68 186.68 214.3 220.8 248.43 186.68 282.55 214.3 310.17 248.43 276.05 282.55 310.17 310.17 282.55"/></g></g></svg>